# xmcd
#
# Track frame offsets: 
#        150
#        22240
#        39211
#        59187
#        76315
#        91068
#        109567
#        129853
#        150932
#
# Disc length: 2547 seconds
#
# Revision: 0
# Processed by: cddbd v1.5.2PL0 Copyright (c) Steve Scherf et al.
# Submitted via: ExactAudioCopy v1.0b3
#
DISCID=6109f109
DTITLE=Ilir Shaqir - Pranë Diellit
DYEAR=2010
DGENRE=Folk - Shqip
TTITLE0=Pavarësia
TTITLE1=Bukuroshja E Prizerenit
TTITLE2=Cuca E Uskanës
TTITLE3=Ti
TTITLE4=Lermëni
TTITLE5=Për Ty Arbëri
TTITLE6=Cubi E Kaprolli
TTITLE7=Binjak Me Historinë
TTITLE8=Diademë E Trimërisë
EXTD=
EXTT0=
EXTT1=
EXTT2=
EXTT3=
EXTT4=
EXTT5=
EXTT6=
EXTT7=
EXTT8=
PLAYORDER=
